<svg width="100" height="100" xmlns="http://www.w3.org/2000/svg">
 <g>
  <g stroke="null">
   <path stroke="#979797" fill="#8B2D57" d="m46.764124,7.44329c0.610315,-1.232715 1.8672,-2.01424 3.240911,-2.01424c1.373711,0 2.632611,0.781525 3.240911,2.01424l11.624177,23.556532c0.525717,1.065533 1.544922,1.804759 2.723252,1.975969l25.995776,3.776699c1.36364,0.197395 2.491614,1.152145 2.916619,2.459387c0.425005,1.307241 0.070498,2.745409 -0.914465,3.704187l-18.808969,18.337637c-0.852023,0.829867 -1.240772,2.026325 -1.041362,3.198612l4.439384,25.89305c0.229623,1.357597 -0.324293,2.72728 -1.440181,3.537005c-1.113874,0.805696 -2.586284,0.912451 -3.806913,0.275951l-23.252381,-12.226434c-1.051433,-0.553916 -2.310333,-0.553916 -3.36378,0l-23.252381,12.22442c-1.216601,0.638514 -2.693038,0.533773 -3.806913,-0.273937c-1.113874,-0.80771 -1.669805,-2.179407 -1.438167,-3.537005l4.439384,-25.89305c0.201424,-1.172287 -0.189339,-2.368746 -1.041362,-3.198612l-18.808969,-18.337637c-0.984963,-0.960792 -1.339469,-2.396945 -0.914465,-3.704187c0.425005,-1.307241 1.554993,-2.261991 2.918633,-2.459387l25.999804,-3.776699c1.176316,-0.17121 2.195521,-0.910436 2.721238,-1.977983l11.630219,-23.554517z"/>
  </g>
 </g>
</svg>