<svg xmlns="http://www.w3.org/2000/svg" xmlns:svg="http://www.w3.org/2000/svg">
<g>
<g>
<path stroke="#979797" fill="#d9d9d9" d="m21.799823,2.95134c0.280602,-0.566762 0.858479,-0.926085 1.490078,-0.926085c0.631589,0 1.210392,0.359323 1.490078,0.926085l5.344448,10.830583c0.24171,0.489903 0.71031,0.829775 1.252073,0.908486l11.952075,1.736409c0.626958,0.090752 1.145565,0.529722 1.340972,1.130755c0.195407,0.601033 0.032409,1.262252 -0.420445,1.703074l-8.647794,8.431092c-0.391732,0.381543 -0.570467,0.931642 -0.478788,1.470627l2.041094,11.904846c0.105572,0.624179 -0.149096,1.253925 -0.662155,1.626206c-0.512123,0.370438 -1.189098,0.419519 -1.750303,0.126875l-10.69074,-5.621346c-0.48342,-0.254677 -1.062223,-0.254677 -1.546569,0l-10.69074,5.62042c-0.559352,0.29357 -1.238179,0.245415 -1.750303,-0.125949c-0.512123,-0.371364 -0.767727,-1.002027 -0.661229,-1.626206l2.041094,-11.904846c0.092605,-0.538984 -0.087057,-1.089074 -0.478788,-1.470627l-8.647794,-8.431092c-0.452854,-0.441739 -0.615843,-1.102041 -0.420445,-1.703074c0.195407,-0.601033 0.714941,-1.039993 1.341899,-1.130755l11.953927,-1.736409c0.540837,-0.078721 1.009437,-0.418593 1.251146,-0.909413l5.347227,-10.829656l-0.000019,0z"/>
</g>
</g>
</svg>